<svg width="20" height="20" viewBox="0 0 20 20" fill="none" xmlns="http://www.w3.org/2000/svg">
<path d="M8.55667 17.5C8.70296 17.7533 8.91335 17.9637 9.16671 18.11C9.42006 18.2563 9.70746 18.3333 10 18.3333C10.2926 18.3333 10.5799 18.2563 10.8333 18.11C11.0867 17.9637 11.2971 17.7533 11.4433 17.5" stroke="#F2A618" stroke-width="1.66667" stroke-linecap="round" stroke-linejoin="round"/>
<path d="M18.3334 6.66797C18.3334 4.7513 17.6667 3.08464 16.6667 1.66797" stroke="#F2A618" stroke-width="1.66667" stroke-linecap="round" stroke-linejoin="round"/>
<path d="M2.71821 12.773C2.60935 12.8923 2.53751 13.0407 2.51143 13.2001C2.48534 13.3595 2.50615 13.523 2.5713 13.6708C2.63646 13.8186 2.74316 13.9443 2.87843 14.0325C3.01369 14.1208 3.1717 14.1679 3.33321 14.168H16.6665C16.828 14.168 16.9861 14.1212 17.1214 14.0331C17.2568 13.945 17.3636 13.8194 17.429 13.6717C17.4943 13.524 17.5153 13.3605 17.4894 13.2011C17.4635 13.0417 17.3919 12.8933 17.2832 12.7738C16.1749 11.6313 14.9999 10.4171 14.9999 6.66797C14.9999 5.34189 14.4731 4.07012 13.5354 3.13243C12.5977 2.19475 11.326 1.66797 9.99988 1.66797C8.6738 1.66797 7.40203 2.19475 6.46435 3.13243C5.52666 4.07012 4.99988 5.34189 4.99988 6.66797C4.99988 10.4171 3.82405 11.6313 2.71821 12.773Z" stroke="#F2A618" stroke-width="1.66667" stroke-linecap="round" stroke-linejoin="round"/>
<path d="M3.33341 1.66797C2.33341 3.08464 1.66675 4.7513 1.66675 6.66797" stroke="#F2A618" stroke-width="1.66667" stroke-linecap="round" stroke-linejoin="round"/>
</svg>
