<svg width="20" height="20" viewBox="0 0 20 20" fill="none" xmlns="http://www.w3.org/2000/svg">
<path d="M13.3334 17.5V15.8333C13.3334 14.9493 12.9822 14.1014 12.357 13.4763C11.7319 12.8512 10.8841 12.5 10 12.5H5.00002C4.11597 12.5 3.26812 12.8512 2.643 13.4763C2.01788 14.1014 1.66669 14.9493 1.66669 15.8333V17.5" stroke="#376EF4" stroke-width="1.66667" stroke-linecap="round" stroke-linejoin="round"/>
<path d="M13.3333 2.60547C14.048 2.79078 14.6811 3.20819 15.133 3.79219C15.5849 4.37619 15.8301 5.09371 15.8301 5.83214C15.8301 6.57056 15.5849 7.28808 15.133 7.87208C14.6811 8.45608 14.048 8.87349 13.3333 9.0588" stroke="#376EF4" stroke-width="1.66667" stroke-linecap="round" stroke-linejoin="round"/>
<path d="M18.3333 17.501V15.8344C18.3327 15.0958 18.0869 14.3784 17.6344 13.7946C17.1819 13.2109 16.5484 12.794 15.8333 12.6094" stroke="#376EF4" stroke-width="1.66667" stroke-linecap="round" stroke-linejoin="round"/>
<path d="M7.50002 9.16667C9.34097 9.16667 10.8334 7.67428 10.8334 5.83333C10.8334 3.99238 9.34097 2.5 7.50002 2.5C5.65907 2.5 4.16669 3.99238 4.16669 5.83333C4.16669 7.67428 5.65907 9.16667 7.50002 9.16667Z" stroke="#376EF4" stroke-width="1.66667" stroke-linecap="round" stroke-linejoin="round"/>
</svg>
