<svg width="16" height="16" viewBox="0 0 16 16" fill="none" xmlns="http://www.w3.org/2000/svg">
<path d="M6.66675 7.33203V11.332" stroke="#F22A36" stroke-width="1.33333" stroke-linecap="round" stroke-linejoin="round"/>
<path d="M9.33325 7.33203V11.332" stroke="#F22A36" stroke-width="1.33333" stroke-linecap="round" stroke-linejoin="round"/>
<path d="M12.6667 4V13.3333C12.6667 13.687 12.5262 14.0261 12.2762 14.2761C12.0261 14.5262 11.687 14.6667 11.3334 14.6667H4.66671C4.31309 14.6667 3.97395 14.5262 3.7239 14.2761C3.47385 14.0261 3.33337 13.687 3.33337 13.3333V4" stroke="#F22A36" stroke-width="1.33333" stroke-linecap="round" stroke-linejoin="round"/>
<path d="M2 4H14" stroke="#F22A36" stroke-width="1.33333" stroke-linecap="round" stroke-linejoin="round"/>
<path d="M5.33325 3.9987V2.66536C5.33325 2.31174 5.47373 1.9726 5.72378 1.72256C5.97383 1.47251 6.31296 1.33203 6.66659 1.33203H9.33325C9.68687 1.33203 10.026 1.47251 10.2761 1.72256C10.5261 1.9726 10.6666 2.31174 10.6666 2.66536V3.9987" stroke="#F22A36" stroke-width="1.33333" stroke-linecap="round" stroke-linejoin="round"/>
</svg>
