<svg width="20" height="20" viewBox="0 0 20 20" fill="none" xmlns="http://www.w3.org/2000/svg">
<path d="M10 20C11.8229 19.974 13.4896 19.5312 15 18.6719C16.5104 17.7865 17.7344 16.5625 18.6719 15C19.5573 13.4115 20 11.7448 20 10C20 8.25521 19.5573 6.58854 18.6719 5C17.7344 3.4375 16.5104 2.21354 15 1.32812C13.4896 0.46875 11.8229 0.0260417 10 0C8.17708 0.0260417 6.51042 0.46875 5 1.32812C3.48958 2.21354 2.26562 3.4375 1.32812 5C0.442708 6.58854 0 8.25521 0 10C0 11.7448 0.442708 13.4115 1.32812 15C2.26562 16.5625 3.48958 17.7865 5 18.6719C6.51042 19.5312 8.17708 19.974 10 20ZM10 5C10.5729 5.05208 10.8854 5.36458 10.9375 5.9375V10.3125C10.8854 10.8854 10.5729 11.1979 10 11.25C9.42708 11.1979 9.11458 10.8854 9.0625 10.3125V5.9375C9.11458 5.36458 9.42708 5.05208 10 5ZM8.75 13.75C8.75 13.3854 8.86719 13.0859 9.10156 12.8516C9.33594 12.6172 9.63542 12.5 10 12.5C10.3646 12.5 10.6641 12.6172 10.8984 12.8516C11.1328 13.0859 11.25 13.3854 11.25 13.75C11.25 14.1146 11.1328 14.4141 10.8984 14.6484C10.6641 14.8828 10.3646 15 10 15C9.63542 15 9.33594 14.8828 9.10156 14.6484C8.86719 14.4141 8.75 14.1146 8.75 13.75Z" fill="#EF4444"/>
</svg>
