<svg width="11" height="11" viewBox="0 0 11 11" fill="none" xmlns="http://www.w3.org/2000/svg">
<path d="M8.03906 1.28906C8.17969 1.13281 8.25 0.953125 8.25 0.75C8.25 0.546875 8.17969 0.367188 8.03906 0.210938C7.88281 0.0703125 7.70312 0 7.5 0C7.29688 0 7.11719 0.0703125 6.96094 0.210938L3.75 3.44531L2.41406 2.08594C2.25781 1.94531 2.07812 1.875 1.875 1.875C1.67188 1.875 1.49219 1.94531 1.33594 2.08594C1.19531 2.24219 1.125 2.42188 1.125 2.625C1.125 2.82812 1.19531 3.00781 1.33594 3.16406L3.21094 5.03906C3.36719 5.17969 3.54688 5.25 3.75 5.25C3.95312 5.25 4.13281 5.17969 4.28906 5.03906L8.03906 1.28906ZM10.2891 4.28906C10.4297 4.13281 10.5 3.95312 10.5 3.75C10.5 3.54688 10.4297 3.36719 10.2891 3.21094C10.1328 3.07031 9.95312 3 9.75 3C9.54688 3 9.36719 3.07031 9.21094 3.21094L3.75 8.69531L1.28906 6.21094C1.13281 6.07031 0.953125 6 0.75 6C0.546875 6 0.367188 6.07031 0.210938 6.21094C0.0703125 6.36719 0 6.54688 0 6.75C0 6.95312 0.0703125 7.13281 0.210938 7.28906L3.21094 10.2891C3.36719 10.4297 3.54688 10.5 3.75 10.5C3.95312 10.5 4.13281 10.4297 4.28906 10.2891L10.2891 4.28906Z" fill="white"/>
</svg>
