<svg width="17" height="13" viewBox="0 0 17 13" fill="none" xmlns="http://www.w3.org/2000/svg">
<path d="M1.23047 0.246094C1.32161 0.0820312 1.46745 0 1.66797 0L8.36719 0.847656L15.0664 0C15.2669 0 15.4128 0.0820312 15.5039 0.246094L16.6523 2.54297C16.7617 2.79818 16.7617 3.04427 16.6523 3.28125C16.5612 3.51823 16.3789 3.68229 16.1055 3.77344L11.6484 5.03125C11.2292 5.1224 10.8919 4.99479 10.6367 4.64844L8.36719 0.847656L6.09766 4.64844C5.84245 4.99479 5.50521 5.1224 5.08594 5.03125L0.628906 3.77344C0.355469 3.68229 0.173177 3.51823 0.0820312 3.28125C-0.0273438 3.04427 -0.0273438 2.79818 0.0820312 2.54297L1.23047 0.246094ZM8.39453 2.59766L9.89844 5.08594C10.1172 5.43229 10.3997 5.67839 10.7461 5.82422C11.1107 5.97005 11.4935 5.98828 11.8945 5.87891L15.3672 4.89453V9.46094C15.3672 9.7526 15.276 10.0169 15.0938 10.2539C14.9115 10.4909 14.6745 10.6458 14.3828 10.7188L8.77734 12.1133C8.50391 12.1862 8.22135 12.1862 7.92969 12.1133L2.35156 10.7188C2.0599 10.6458 1.82292 10.4909 1.64062 10.2539C1.45833 10.0169 1.36719 9.7526 1.36719 9.46094V4.89453L4.86719 5.87891C5.25 5.98828 5.6237 5.97005 5.98828 5.82422C6.33464 5.67839 6.61719 5.43229 6.83594 5.08594L8.33984 2.59766H8.39453Z" fill="#F97316"/>
</svg>
