<svg width="13" height="14" viewBox="0 0 13 14" fill="none" xmlns="http://www.w3.org/2000/svg">
<path d="M2.625 0.875V1.75H1.3125C0.947917 1.76823 0.638021 1.89583 0.382812 2.13281C0.145833 2.38802 0.0182292 2.69792 0 3.0625V4.375H12.25V3.0625C12.2318 2.69792 12.1042 2.38802 11.8672 2.13281C11.612 1.89583 11.3021 1.76823 10.9375 1.75H9.625V0.875C9.625 0.619792 9.54297 0.410156 9.37891 0.246094C9.21484 0.0820312 9.00521 0 8.75 0C8.49479 0 8.28516 0.0820312 8.12109 0.246094C7.95703 0.410156 7.875 0.619792 7.875 0.875V1.75H4.375V0.875C4.375 0.619792 4.29297 0.410156 4.12891 0.246094C3.96484 0.0820312 3.75521 0 3.5 0C3.24479 0 3.03516 0.0820312 2.87109 0.246094C2.70703 0.410156 2.625 0.619792 2.625 0.875ZM12.25 5.25H0V12.6875C0.0182292 13.0521 0.145833 13.362 0.382812 13.6172C0.638021 13.8542 0.947917 13.9818 1.3125 14H10.9375C11.3021 13.9818 11.612 13.8542 11.8672 13.6172C12.1042 13.362 12.2318 13.0521 12.25 12.6875V5.25ZM6.125 6.78125C6.52604 6.81771 6.74479 7.03646 6.78125 7.4375V8.96875H8.3125C8.71354 9.00521 8.93229 9.22396 8.96875 9.625C8.93229 10.026 8.71354 10.2448 8.3125 10.2812H6.78125V11.8125C6.74479 12.2135 6.52604 12.4323 6.125 12.4688C5.72396 12.4323 5.50521 12.2135 5.46875 11.8125V10.2812H3.9375C3.53646 10.2448 3.31771 10.026 3.28125 9.625C3.31771 9.22396 3.53646 9.00521 3.9375 8.96875H5.46875V7.4375C5.50521 7.03646 5.72396 6.81771 6.125 6.78125Z" fill="#3B82F6"/>
</svg>
