<svg width="18" height="20" viewBox="0 0 18 20" fill="none" xmlns="http://www.w3.org/2000/svg">
<path d="M5 0C5.36458 0 5.66406 0.117188 5.89844 0.351562C6.13281 0.585938 6.25 0.885417 6.25 1.25V2.5H11.25V1.25C11.25 0.885417 11.3672 0.585938 11.6016 0.351562C11.8359 0.117188 12.1354 0 12.5 0C12.8646 0 13.1641 0.117188 13.3984 0.351562C13.6328 0.585938 13.75 0.885417 13.75 1.25V2.5H15.625C16.1458 2.52604 16.5885 2.70833 16.9531 3.04688C17.2917 3.41146 17.474 3.85417 17.5 4.375V6.25H0V4.375C0.0260417 3.85417 0.208333 3.41146 0.546875 3.04688C0.911458 2.70833 1.35417 2.52604 1.875 2.5H3.75V1.25C3.75 0.885417 3.86719 0.585938 4.10156 0.351562C4.33594 0.117188 4.63542 0 5 0ZM0 7.5H17.5V18.125C17.474 18.6458 17.2917 19.0885 16.9531 19.4531C16.5885 19.7917 16.1458 19.974 15.625 20H1.875C1.35417 19.974 0.911458 19.7917 0.546875 19.4531C0.208333 19.0885 0.0260417 18.6458 0 18.125V7.5ZM3.125 10C2.73438 10.026 2.52604 10.2344 2.5 10.625V14.375C2.52604 14.7656 2.73438 14.974 3.125 15H6.875C7.26562 14.974 7.47396 14.7656 7.5 14.375V10.625C7.47396 10.2344 7.26562 10.026 6.875 10H3.125Z" fill="#3B82F6"/>
</svg>
