<svg width="16" height="16" viewBox="0 0 16 16" fill="none" xmlns="http://www.w3.org/2000/svg">
<path d="M4.00033 14.6654C3.6467 14.6654 3.30756 14.5249 3.05752 14.2748C2.80747 14.0248 2.66699 13.6857 2.66699 13.332V2.66537C2.66699 2.31174 2.80747 1.97261 3.05752 1.72256C3.30756 1.47251 3.6467 1.33203 4.00033 1.33203H9.33366C9.5447 1.33169 9.75371 1.3731 9.94868 1.45388C10.1436 1.53466 10.3207 1.65321 10.4697 1.8027L12.8617 4.1947C13.0116 4.3437 13.1304 4.52093 13.2115 4.71614C13.2925 4.91135 13.334 5.12068 13.3337 5.33203V13.332C13.3337 13.6857 13.1932 14.0248 12.9431 14.2748C12.6931 14.5249 12.3539 14.6654 12.0003 14.6654H4.00033Z" stroke="#071123" stroke-width="1.33333" stroke-linecap="round" stroke-linejoin="round"/>
<path d="M9.33301 1.33203V4.66536C9.33301 4.84218 9.40325 5.01174 9.52827 5.13677C9.65329 5.26179 9.82286 5.33203 9.99967 5.33203H13.333" stroke="#071123" stroke-width="1.33333" stroke-linecap="round" stroke-linejoin="round"/>
<path d="M6.66634 6H5.33301" stroke="#071123" stroke-width="1.33333" stroke-linecap="round" stroke-linejoin="round"/>
<path d="M10.6663 8.66797H5.33301" stroke="#071123" stroke-width="1.33333" stroke-linecap="round" stroke-linejoin="round"/>
<path d="M10.6663 11.332H5.33301" stroke="#071123" stroke-width="1.33333" stroke-linecap="round" stroke-linejoin="round"/>
</svg>
